<?xml version="1.0" encoding="UTF-8" standalone="no"?>
<!-- Created with Inkscape (http://www.inkscape.org/) -->

<svg
   xmlns:dc="http://purl.org/dc/elements/1.1/"
   xmlns:cc="http://creativecommons.org/ns#"
   xmlns:rdf="http://www.w3.org/1999/02/22-rdf-syntax-ns#"
   xmlns:svg="http://www.w3.org/2000/svg"
   xmlns="http://www.w3.org/2000/svg"
   xmlns:sodipodi="http://sodipodi.sourceforge.net/DTD/sodipodi-0.dtd"
   xmlns:inkscape="http://www.inkscape.org/namespaces/inkscape"
   width="800"
   height="600"
   viewBox="0 0 800.00001 600.00001"
   id="svg2"
   version="1.1"
   inkscape:version="0.91 r13725"
   sodipodi:docname="background.svg"
   inkscape:export-filename="/Users/blondin_al/Documents/Enseignement/inf5071/diapos/demos/background/assets/background.png"
   inkscape:export-xdpi="90"
   inkscape:export-ydpi="90">
  <defs
     id="defs4">
    <clipPath
       clipPathUnits="userSpaceOnUse"
       id="clipPath4180">
      <rect
         y="452.36215"
         x="0"
         height="600"
         width="800"
         id="rect4182"
         style="opacity:1;fill:#00e8ff;fill-opacity:1;stroke:none;stroke-width:10;stroke-linecap:round;stroke-linejoin:round;stroke-miterlimit:4;stroke-dasharray:none;stroke-opacity:1" />
    </clipPath>
  </defs>
  <sodipodi:namedview
     id="base"
     pagecolor="#ffffff"
     bordercolor="#666666"
     borderopacity="1.0"
     inkscape:pageopacity="0.0"
     inkscape:pageshadow="2"
     inkscape:zoom="0.77792969"
     inkscape:cx="220.74441"
     inkscape:cy="314.32589"
     inkscape:document-units="px"
     inkscape:current-layer="layer1"
     showgrid="false"
     units="px"
     inkscape:window-width="1280"
     inkscape:window-height="751"
     inkscape:window-x="0"
     inkscape:window-y="0"
     inkscape:window-maximized="1" />
  <metadata
     id="metadata7">
    <rdf:RDF>
      <cc:Work
         rdf:about="">
        <dc:format>image/svg+xml</dc:format>
        <dc:type
           rdf:resource="http://purl.org/dc/dcmitype/StillImage" />
        <dc:title />
      </cc:Work>
    </rdf:RDF>
  </metadata>
  <g
     inkscape:label="Calque 1"
     inkscape:groupmode="layer"
     id="layer1"
     transform="translate(0,-452.36216)">
    <rect
       style="opacity:1;fill:#00e8ff;fill-opacity:1;stroke:none;stroke-width:10;stroke-linecap:round;stroke-linejoin:round;stroke-miterlimit:4;stroke-dasharray:none;stroke-opacity:1"
       id="rect4136"
       width="800"
       height="600"
       x="0"
       y="452.36215" />
    <path
       style="opacity:1;fill:#ffffff;fill-opacity:1;stroke:#000000;stroke-width:2;stroke-linecap:round;stroke-linejoin:round;stroke-miterlimit:4;stroke-dasharray:none;stroke-opacity:1"
       d="m 630.81751,503.35044 a 58.173424,44.539028 0 0 0 -45.44922,16.8086 58.173424,44.539028 0 0 0 -32.7207,-7.71875 58.173424,44.539028 0 0 0 -57.89063,40.20312 58.173424,44.539028 0 0 0 -53.00195,44.33008 58.173424,44.539028 0 0 0 58.17187,44.53906 58.173424,44.539028 0 0 0 41.77539,-13.61133 58.173424,44.539028 0 0 0 41.84961,13.61133 58.173424,44.539028 0 0 0 58.17384,-44.53906 58.173424,44.539028 0 0 0 -0.48438,-5.28516 58.173424,44.539028 0 0 0 47.75,-43.79883 58.173424,44.539028 0 0 0 -58.17383,-44.53906 z"
       id="path4138"
       inkscape:connector-curvature="0" />
    <path
       style="opacity:1;fill:#e6e6e6;fill-opacity:1;stroke:#000000;stroke-width:2;stroke-linecap:round;stroke-linejoin:round;stroke-miterlimit:4;stroke-dasharray:none;stroke-opacity:1"
       d="m 131.77214,500.70908 a 48.762989,31.646173 33.605713 0 0 -24.11914,10.71484 48.762989,31.646173 33.605713 0 0 -3.36328,16.30664 48.762989,31.646173 33.605713 0 0 -2.19141,2.04688 48.762989,31.646173 33.605713 0 0 -54.435539,1.64453 48.762989,31.646173 33.605713 0 0 23.0957,53.34375 48.762989,31.646173 33.605713 0 0 34.517579,11.32812 48.762989,31.646173 33.605713 0 0 23.86523,27.47071 48.762989,31.646173 33.605713 0 0 58.12695,0.63086 48.762989,31.646173 33.605713 0 0 1.74024,-3.35157 48.762989,31.646173 33.605713 0 0 50.56055,-3.76562 48.762989,31.646173 33.605713 0 0 3.16211,-8.0586 48.762989,31.646173 33.605713 0 0 4.52929,-4.82031 48.762989,31.646173 33.605713 0 0 1.74024,-3.35351 48.762989,31.646173 33.605713 0 0 50.56054,-3.76563 48.762989,31.646173 33.605713 0 0 -23.09765,-53.3457 48.762989,31.646173 33.605713 0 0 -38.33985,-11.13867 48.762989,31.646173 33.605713 0 0 -19.80859,-19.74805 48.762989,31.646173 33.605713 0 0 -56.22656,-3.06641 48.762989,31.646173 33.605713 0 0 -30.31641,-9.07226 z"
       id="path4166"
       inkscape:connector-curvature="0" />
    <rect
       style="opacity:1;fill:#6a4a00;fill-opacity:1;stroke:#000000;stroke-width:2;stroke-linecap:round;stroke-linejoin:round;stroke-miterlimit:4;stroke-dasharray:none;stroke-opacity:1"
       id="rect4172"
       width="981.67651"
       height="161.79483"
       x="-70.898865"
       y="939.65118"
       clip-path="url(#clipPath4180)" />
    <path
       style="opacity:1;fill:#008000;fill-opacity:1;stroke:#000000;stroke-width:1.610533;stroke-linecap:round;stroke-linejoin:round;stroke-miterlimit:4;stroke-dasharray:none;stroke-opacity:1"
       d="m 658.56526,825.9252 a 6.9631064,79.250634 0 0 0 -6.39423,47.94903 9.4001937,7.6942366 0 0 0 -2.30864,-0.24468 9.4001937,7.6942366 0 0 0 -9.4007,7.69478 9.4001937,7.6942366 0 0 0 9.4007,7.69477 9.4001937,7.6942366 0 0 0 1.89239,-0.16545 6.9631064,79.250634 0 0 0 -0.15212,16.32402 6.9631064,79.250634 0 0 0 0.31131,23.44785 19.369744,4.5244853 13.38544 0 0 -2.7074,-0.97175 1.8468855,6.2194167 1.7084329 0 0 0.12942,-1.51006 1.8468855,6.2194167 1.7084329 0 0 -1.53909,-6.62049 1.8468855,6.2194167 1.7084329 0 0 -2.12501,5.78624 1.8468855,6.2194167 1.7084329 0 0 -0.0192,1.25838 19.369744,4.5244853 13.38544 0 0 -3.88273,-0.98341 19.369744,4.5244853 13.38544 0 0 -19.08824,0.30994 19.369744,4.5244853 13.38544 0 0 13.76963,7.60622 1.8486184,9.6655793 2.3105349 0 0 -0.70833,6.04024 1.8486184,9.6655793 2.3105349 0 0 1.37644,10.06706 1.8486184,9.6655793 2.3105349 0 0 2.28765,-9.23281 1.8486184,9.6655793 2.3105349 0 0 -0.11542,-6.09381 19.369744,4.5244853 13.38544 0 0 2.04455,0.49402 19.369744,4.5244853 13.38544 0 0 10.83137,1.62191 6.9631064,79.250634 0 0 0 6.39772,48.03059 6.9631064,79.250634 0 0 0 6.71779,-58.69886 14.622525,7.6942366 0 0 0 9.29751,1.76173 14.622525,7.6942366 0 0 0 14.62313,-7.69479 14.622525,7.6942366 0 0 0 -14.62313,-7.69477 14.622525,7.6942366 0 0 0 -9.09638,1.66852 6.9631064,79.250634 0 0 0 0.0455,-8.59195 6.9631064,79.250634 0 0 0 -6.96439,-79.25247 z"
       id="path4184"
       inkscape:connector-curvature="0" />
    <path
       inkscape:connector-curvature="0"
       id="path4194"
       d="m 99.388758,802.78687 a 6.9631064,79.250634 0 0 0 -6.39423,47.94903 9.4001937,7.6942366 0 0 0 -2.30864,-0.24468 9.4001937,7.6942366 0 0 0 -9.4007,7.69478 9.4001937,7.6942366 0 0 0 9.4007,7.69477 9.4001937,7.6942366 0 0 0 1.89239,-0.16545 6.9631064,79.250634 0 0 0 -0.15212,16.32402 6.9631064,79.250634 0 0 0 0.31131,23.44785 19.369744,4.5244853 13.38544 0 0 -2.7074,-0.97175 1.8468855,6.2194167 1.7084329 0 0 0.12942,-1.51006 1.8468855,6.2194167 1.7084329 0 0 -1.53909,-6.62049 1.8468855,6.2194167 1.7084329 0 0 -2.12501,5.78624 1.8468855,6.2194167 1.7084329 0 0 -0.0192,1.25838 19.369744,4.5244853 13.38544 0 0 -3.88273,-0.98341 19.369744,4.5244853 13.38544 0 0 -19.08824,0.30994 19.369744,4.5244853 13.38544 0 0 13.76963,7.60622 1.8486184,9.6655793 2.3105349 0 0 -0.70833,6.04024 1.8486184,9.6655793 2.3105349 0 0 1.37644,10.06706 1.8486184,9.6655793 2.3105349 0 0 2.28765,-9.23281 1.8486184,9.6655793 2.3105349 0 0 -0.11542,-6.09381 19.369744,4.5244853 13.38544 0 0 2.04455,0.49402 19.369744,4.5244853 13.38544 0 0 10.83137,1.62191 6.9631064,79.250634 0 0 0 6.39772,48.03059 6.9631064,79.250634 0 0 0 6.717792,-58.69886 14.622525,7.6942366 0 0 0 9.29751,1.76173 14.622525,7.6942366 0 0 0 14.62313,-7.69479 14.622525,7.6942366 0 0 0 -14.62313,-7.69477 14.622525,7.6942366 0 0 0 -9.09638,1.66852 6.9631064,79.250634 0 0 0 0.0455,-8.59195 6.9631064,79.250634 0 0 0 -6.964392,-79.25247 z"
       style="opacity:1;fill:#008000;fill-opacity:1;stroke:#000000;stroke-width:1.610533;stroke-linecap:round;stroke-linejoin:round;stroke-miterlimit:4;stroke-dasharray:none;stroke-opacity:1" />
    <g
       id="g4202"
       transform="matrix(0.528421,0,0,0.85142863,-51.648458,140.94854)">
      <path
         sodipodi:nodetypes="cccc"
         inkscape:transform-center-y="3.9515251"
         inkscape:transform-center-x="10.31293"
         inkscape:connector-curvature="0"
         id="path4196"
         d="m -62.987698,948.23964 c 2.354844,-46.31496 -10.949407,-86.9357 -46.276672,-119.54808 17.399382,10.90861 23.142369,5.60664 43.705746,44.99121 4.235769,19.29831 8.470812,51.88 2.570926,74.55687 z"
         style="fill:#00c700;fill-opacity:1;fill-rule:evenodd;stroke:#000000;stroke-width:1px;stroke-linecap:butt;stroke-linejoin:miter;stroke-opacity:1" />
      <path
         style="fill:#00c700;fill-opacity:1;fill-rule:evenodd;stroke:#000000;stroke-width:1px;stroke-linecap:butt;stroke-linejoin:miter;stroke-opacity:1"
         d="m -62.527601,946.57583 c 12.94669,-44.53094 9.344314,-87.12284 -17.53273,-126.98771 14.423102,14.61884 21.231795,10.78029 32.182976,53.83918 -0.317526,19.75514 -3.691672,52.43721 -14.650246,73.14853 z"
         id="path4198"
         inkscape:connector-curvature="0"
         inkscape:transform-center-x="5.0338221"
         inkscape:transform-center-y="1.1388301"
         sodipodi:nodetypes="cccc" />
      <path
         sodipodi:nodetypes="cccc"
         inkscape:transform-center-y="5.1136474"
         inkscape:transform-center-x="-5.3613721"
         inkscape:connector-curvature="0"
         id="path4200"
         d="m -61.515615,940.97872 c 2.03137,-42.56065 11.33249,-77.91845 30.857829,-103.14618 -9.262385,7.72288 -11.707684,2.14906 -24.475339,35.44842 -3.39881,17.06522 -7.71029,46.25059 -6.38249,67.69776 z"
         style="fill:#00c700;fill-opacity:1;fill-rule:evenodd;stroke:#000000;stroke-width:0.67469233px;stroke-linecap:butt;stroke-linejoin:miter;stroke-opacity:1" />
    </g>
    <g
       transform="matrix(0.528421,0,0,0.85142863,206.72965,151.23225)"
       id="g4207">
      <path
         style="fill:#00c700;fill-opacity:1;fill-rule:evenodd;stroke:#000000;stroke-width:1px;stroke-linecap:butt;stroke-linejoin:miter;stroke-opacity:1"
         d="m -62.987698,948.23964 c 2.354844,-46.31496 -10.949407,-86.9357 -46.276672,-119.54808 17.399382,10.90861 23.142369,5.60664 43.705746,44.99121 4.235769,19.29831 8.470812,51.88 2.570926,74.55687 z"
         id="path4209"
         inkscape:connector-curvature="0"
         inkscape:transform-center-x="10.31293"
         inkscape:transform-center-y="3.9515251"
         sodipodi:nodetypes="cccc" />
      <path
         sodipodi:nodetypes="cccc"
         inkscape:transform-center-y="1.1388301"
         inkscape:transform-center-x="5.0338221"
         inkscape:connector-curvature="0"
         id="path4211"
         d="m -62.527601,946.57583 c 12.94669,-44.53094 9.344314,-87.12284 -17.53273,-126.98771 14.423102,14.61884 21.231795,10.78029 32.182976,53.83918 -0.317526,19.75514 -3.691672,52.43721 -14.650246,73.14853 z"
         style="fill:#00c700;fill-opacity:1;fill-rule:evenodd;stroke:#000000;stroke-width:1px;stroke-linecap:butt;stroke-linejoin:miter;stroke-opacity:1" />
      <path
         style="fill:#00c700;fill-opacity:1;fill-rule:evenodd;stroke:#000000;stroke-width:0.67469233px;stroke-linecap:butt;stroke-linejoin:miter;stroke-opacity:1"
         d="m -61.515615,940.97872 c 2.03137,-42.56065 11.33249,-77.91845 30.857829,-103.14618 -9.262385,7.72288 -11.707684,2.14906 -24.475339,35.44842 -3.39881,17.06522 -7.71029,46.25059 -6.38249,67.69776 z"
         id="path4213"
         inkscape:connector-curvature="0"
         inkscape:transform-center-x="-5.3613721"
         inkscape:transform-center-y="5.1136474"
         sodipodi:nodetypes="cccc" />
    </g>
    <g
       id="g4215"
       transform="matrix(0.28424875,0,0,0.782347,579.77634,225.78404)">
      <path
         sodipodi:nodetypes="cccc"
         inkscape:transform-center-y="3.9515251"
         inkscape:transform-center-x="10.31293"
         inkscape:connector-curvature="0"
         id="path4217"
         d="m -62.987698,948.23964 c 2.354844,-46.31496 -10.949407,-86.9357 -46.276672,-119.54808 17.399382,10.90861 23.142369,5.60664 43.705746,44.99121 4.235769,19.29831 8.470812,51.88 2.570926,74.55687 z"
         style="fill:#00c700;fill-opacity:1;fill-rule:evenodd;stroke:#000000;stroke-width:1px;stroke-linecap:butt;stroke-linejoin:miter;stroke-opacity:1" />
      <path
         style="fill:#00c700;fill-opacity:1;fill-rule:evenodd;stroke:#000000;stroke-width:1px;stroke-linecap:butt;stroke-linejoin:miter;stroke-opacity:1"
         d="m -62.527601,946.57583 c 12.94669,-44.53094 9.344314,-87.12284 -17.53273,-126.98771 14.423102,14.61884 21.231795,10.78029 32.182976,53.83918 -0.317526,19.75514 -3.691672,52.43721 -14.650246,73.14853 z"
         id="path4219"
         inkscape:connector-curvature="0"
         inkscape:transform-center-x="5.0338221"
         inkscape:transform-center-y="1.1388301"
         sodipodi:nodetypes="cccc" />
      <path
         sodipodi:nodetypes="cccc"
         inkscape:transform-center-y="5.1136474"
         inkscape:transform-center-x="-5.3613721"
         inkscape:connector-curvature="0"
         id="path4221"
         d="m -61.515615,940.97872 c 2.03137,-42.56065 11.33249,-77.91845 30.857829,-103.14618 -9.262385,7.72288 -11.707684,2.14906 -24.475339,35.44842 -3.39881,17.06522 -7.71029,46.25059 -6.38249,67.69776 z"
         style="fill:#00c700;fill-opacity:1;fill-rule:evenodd;stroke:#000000;stroke-width:0.67469233px;stroke-linecap:butt;stroke-linejoin:miter;stroke-opacity:1" />
    </g>
    <g
       transform="matrix(0.28424875,0,0,0.782347,758.45573,221.92765)"
       id="g4223">
      <path
         style="fill:#00c700;fill-opacity:1;fill-rule:evenodd;stroke:#000000;stroke-width:1px;stroke-linecap:butt;stroke-linejoin:miter;stroke-opacity:1"
         d="m -62.987698,948.23964 c 2.354844,-46.31496 -10.949407,-86.9357 -46.276672,-119.54808 17.399382,10.90861 23.142369,5.60664 43.705746,44.99121 4.235769,19.29831 8.470812,51.88 2.570926,74.55687 z"
         id="path4225"
         inkscape:connector-curvature="0"
         inkscape:transform-center-x="10.31293"
         inkscape:transform-center-y="3.9515251"
         sodipodi:nodetypes="cccc" />
      <path
         sodipodi:nodetypes="cccc"
         inkscape:transform-center-y="1.1388301"
         inkscape:transform-center-x="5.0338221"
         inkscape:connector-curvature="0"
         id="path4227"
         d="m -62.527601,946.57583 c 12.94669,-44.53094 9.344314,-87.12284 -17.53273,-126.98771 14.423102,14.61884 21.231795,10.78029 32.182976,53.83918 -0.317526,19.75514 -3.691672,52.43721 -14.650246,73.14853 z"
         style="fill:#00c700;fill-opacity:1;fill-rule:evenodd;stroke:#000000;stroke-width:1px;stroke-linecap:butt;stroke-linejoin:miter;stroke-opacity:1" />
      <path
         style="fill:#00c700;fill-opacity:1;fill-rule:evenodd;stroke:#000000;stroke-width:0.67469233px;stroke-linecap:butt;stroke-linejoin:miter;stroke-opacity:1"
         d="m -61.515615,940.97872 c 2.03137,-42.56065 11.33249,-77.91845 30.857829,-103.14618 -9.262385,7.72288 -11.707684,2.14906 -24.475339,35.44842 -3.39881,17.06522 -7.71029,46.25059 -6.38249,67.69776 z"
         id="path4229"
         inkscape:connector-curvature="0"
         inkscape:transform-center-x="-5.3613721"
         inkscape:transform-center-y="5.1136474"
         sodipodi:nodetypes="cccc" />
    </g>
    <path
       style="fill:#999999;fill-rule:evenodd;stroke:#000000;stroke-width:0.55687439px;stroke-linecap:butt;stroke-linejoin:miter;stroke-opacity:1"
       d="m -128.17784,749.22211 c -11.12567,-4.122 -13.04275,-16.5434 -7.10909,-36.04042 2.31229,-24.59531 20.74539,-26.66607 46.20909,-17.29939 16.0083,5.28591 16.469685,18.93895 8.530907,38.92364 -9.696978,22.03701 -31.201457,11.15126 -47.630907,14.41617 z"
       id="path4231"
       inkscape:connector-curvature="0"
       sodipodi:nodetypes="ccccc"
       inkscape:export-xdpi="90"
       inkscape:export-ydpi="90" />
    <path
       sodipodi:nodetypes="ccccc"
       inkscape:connector-curvature="0"
       id="path4235"
       d="m 243.32103,953.61076 c -11.12567,-4.122 -13.04275,-16.5434 -7.10909,-36.04042 2.31229,-24.59531 20.74539,-26.66607 46.20909,-17.29939 16.0083,5.28591 16.46969,18.93895 8.53091,38.92364 -9.69698,22.03701 -31.20146,11.15126 -47.63091,14.41617 z"
       style="fill:#999999;fill-rule:evenodd;stroke:#000000;stroke-width:0.55687439px;stroke-linecap:butt;stroke-linejoin:miter;stroke-opacity:1" />
    <path
       style="fill:#999999;fill-rule:evenodd;stroke:#000000;stroke-width:0.55687439px;stroke-linecap:butt;stroke-linejoin:miter;stroke-opacity:1"
       d="m 722.79881,981.89095 c -11.12567,-4.122 -13.04275,-16.5434 -7.10909,-36.04042 2.31229,-24.59531 20.74539,-26.66607 46.20909,-17.29939 16.0083,5.28591 16.46969,18.93895 8.53091,38.92364 -9.69698,22.03701 -31.20146,11.15126 -47.63091,14.41617 z"
       id="path4237"
       inkscape:connector-curvature="0"
       sodipodi:nodetypes="ccccc" />
    <path
       inkscape:connector-curvature="0"
       id="path4271"
       d="m -238.80472,629.97545 a 24.632232,13.682173 22.269772 0 0 20.18846,4.22834 24.632232,13.682173 22.269772 0 0 10.9347,8.09408 24.632232,13.682173 22.269772 0 0 29.12818,0.59743 24.632232,13.682173 22.269772 0 0 28.03457,-1.36954 24.632232,13.682173 22.269772 0 0 -13.84307,-22.24167 24.632232,13.682173 22.269772 0 0 -18.22261,-4.35499 24.632232,13.682173 22.269772 0 0 -13.30632,-11.30499 24.632232,13.682173 22.269772 0 0 -30.02248,0.45429 24.632232,13.682173 22.269772 0 0 -0.77729,1.43732 24.632232,13.682173 22.269772 0 0 -25.95795,2.2177 24.632232,13.682173 22.269772 0 0 13.84381,22.24203 z"
       style="opacity:1;fill:#ffffff;fill-opacity:1;stroke:#000000;stroke-width:0.72131789;stroke-linecap:round;stroke-linejoin:round;stroke-miterlimit:4;stroke-dasharray:none;stroke-opacity:1"
       inkscape:export-filename="/Users/blondin_al/Documents/Enseignement/inf5071/diapos/demos/moving-sprite/assets/cloud.png"
       inkscape:export-xdpi="90"
       inkscape:export-ydpi="90" />
  </g>
</svg>
